<svg width="18" height="20" viewBox="0 0 18 20" fill="none" xmlns="http://www.w3.org/2000/svg">
<g filter="url(#filter0_b)">
<path d="M16.4186 16.48C16.4186 17.176 16.1666 17.776 15.6626 18.28C15.1826 18.76 14.5946 19 13.8986 19H1.29859V6.4L3.81859 3.88H1.29859V1.36H11.3786C12.0746 1.36 12.6626 1.612 13.1426 2.116C13.6466 2.596 13.8986 3.184 13.8986 3.88V8.92H13.9706C14.6666 8.92 15.2426 9.172 15.6986 9.676C16.1786 10.156 16.4186 10.744 16.4186 11.44V16.48ZM11.0186 8.92V3.88H4.17859V11.08L6.33859 8.92H11.0186ZM13.5386 16.48V11.44H4.17859V16.48H13.5386Z" fill="black"/>
<path d="M15.6626 18.28L14.9555 17.5729L14.9555 17.5729L15.6626 18.28ZM1.29859 19H0.298594V20H1.29859V19ZM1.29859 6.4L0.591487 5.69289L0.298594 5.98579V6.4H1.29859ZM3.81859 3.88L4.5257 4.58711L6.23281 2.88H3.81859V3.88ZM1.29859 3.88H0.298594V4.88H1.29859V3.88ZM1.29859 1.36V0.36H0.298594V1.36H1.29859ZM13.1426 2.116L12.4185 2.80565L12.4353 2.82332L12.4529 2.84014L13.1426 2.116ZM13.8986 8.92H12.8986V9.92H13.8986V8.92ZM15.6986 9.676L14.9571 10.3469L14.9738 10.3654L14.9915 10.3831L15.6986 9.676ZM11.0186 8.92V9.92H12.0186V8.92H11.0186ZM11.0186 3.88H12.0186V2.88H11.0186V3.88ZM4.17859 3.88V2.88H3.17859V3.88H4.17859ZM4.17859 11.08H3.17859V13.4942L4.8857 11.7871L4.17859 11.08ZM6.33859 8.92V7.92H5.92438L5.63149 8.21289L6.33859 8.92ZM13.5386 16.48V17.48H14.5386V16.48H13.5386ZM13.5386 11.44H14.5386V10.44H13.5386V11.44ZM4.17859 11.44V10.44H3.17859V11.44H4.17859ZM4.17859 16.48H3.17859V17.48H4.17859V16.48ZM15.4186 16.48C15.4186 16.9037 15.277 17.2514 14.9555 17.5729L16.3697 18.9871C17.0562 18.3006 17.4186 17.4483 17.4186 16.48H15.4186ZM14.9555 17.5729C14.6683 17.8601 14.3369 18 13.8986 18V20C14.8523 20 15.6969 19.6599 16.3697 18.9871L14.9555 17.5729ZM13.8986 18H1.29859V20H13.8986V18ZM2.29859 19V6.4H0.298594V19H2.29859ZM2.0057 7.10711L4.5257 4.58711L3.11149 3.17289L0.591487 5.69289L2.0057 7.10711ZM3.81859 2.88H1.29859V4.88H3.81859V2.88ZM2.29859 3.88V1.36H0.298594V3.88H2.29859ZM1.29859 2.36H11.3786V0.36H1.29859V2.36ZM11.3786 2.36C11.8009 2.36 12.1272 2.49983 12.4185 2.80565L13.8667 1.42634C13.198 0.724164 12.3483 0.36 11.3786 0.36V2.36ZM12.4529 2.84014C12.7588 3.13139 12.8986 3.45768 12.8986 3.88H14.8986C14.8986 2.91032 14.5344 2.0606 13.8322 1.39186L12.4529 2.84014ZM12.8986 3.88V8.92H14.8986V3.88H12.8986ZM13.8986 9.92H13.9706V7.92H13.8986V9.92ZM13.9706 9.92C14.3918 9.92 14.6958 10.0581 14.9571 10.3469L16.4401 9.00509C15.7894 8.28588 14.9414 7.92 13.9706 7.92V9.92ZM14.9915 10.3831C15.2787 10.6703 15.4186 11.0017 15.4186 11.44H17.4186C17.4186 10.4863 17.0785 9.64168 16.4057 8.96889L14.9915 10.3831ZM15.4186 11.44V16.48H17.4186V11.44H15.4186ZM12.0186 8.92V3.88H10.0186V8.92H12.0186ZM11.0186 2.88H4.17859V4.88H11.0186V2.88ZM3.17859 3.88V11.08H5.17859V3.88H3.17859ZM4.8857 11.7871L7.0457 9.62711L5.63149 8.21289L3.47149 10.3729L4.8857 11.7871ZM6.33859 9.92H11.0186V7.92H6.33859V9.92ZM14.5386 16.48V11.44H12.5386V16.48H14.5386ZM13.5386 10.44H4.17859V12.44H13.5386V10.44ZM3.17859 11.44V16.48H5.17859V11.44H3.17859ZM4.17859 17.48H13.5386V15.48H4.17859V17.48Z" fill="#E24727"/>
</g>
<defs>
<filter id="filter0_b" x="-3.70141" y="-3.64" width="25.12" height="27.64" filterUnits="userSpaceOnUse" color-interpolation-filters="sRGB">
<feFlood flood-opacity="0" result="BackgroundImageFix"/>
<feGaussianBlur in="BackgroundImage" stdDeviation="2"/>
<feComposite in2="SourceAlpha" operator="in" result="effect1_backgroundBlur"/>
<feBlend mode="normal" in="SourceGraphic" in2="effect1_backgroundBlur" result="shape"/>
</filter>
</defs>
</svg>
