<svg height="512" viewBox="0 0 64 64" width="512" xmlns="http://www.w3.org/2000/svg"><g id="Layer_28" data-name="Layer 28"><path d="m58 1h-52a5 5 0 0 0 -5 5v36a5 5 0 0 0 5 5h18v8h-3a5 5 0 0 0 -5 5v2a1 1 0 0 0 1 1h30a1 1 0 0 0 1-1v-2a5 5 0 0 0 -5-5h-3v-8h18a5 5 0 0 0 5-5v-36a5 5 0 0 0 -5-5zm-12 59v1h-28v-1a3 3 0 0 1 3-3h22a3 3 0 0 1 3 3zm-8-5h-12v-8h12zm23-13a3 3 0 0 1 -3 3h-52a3 3 0 0 1 -3-3v-36a3 3 0 0 1 3-3h52a3 3 0 0 1 3 3z"/><path d="m58 5h-52a1 1 0 0 0 -1 1v36a1 1 0 0 0 1 1h52a1 1 0 0 0 1-1v-36a1 1 0 0 0 -1-1zm-1 36h-50v-34h50z"/><path d="m49 25a6 6 0 1 0 -6-6 6 6 0 0 0 6 6zm0-10a4 4 0 1 1 -4 4 4 4 0 0 1 4-4z"/><path d="m49 39a6 6 0 1 0 -6-6 6 6 0 0 0 6 6zm0-10a4 4 0 1 1 -4 4 4 4 0 0 1 4-4z"/><path d="m46 32h6v2h-6z"/><path d="m48 22h2v-2h2v-2h-2v-2h-2v2h-2v2h2z"/><path d="m17 21.26 2-7.16 2 9.12a1 1 0 0 0 1.92.1l2-6.07 4.08 13.05a1 1 0 0 0 1 .7 1 1 0 0 0 .94-.79l2.31-10.79.78 1.95a1 1 0 0 0 .97.63h6v-2h-5.32l-1.75-4.37a1 1 0 0 0 -1.91.16l-2.2 10.28-3.82-12.37a1 1 0 0 0 -1-.7 1 1 0 0 0 -.95.68l-1.87 5.63-2.18-9.53a1 1 0 0 0 -1-.78 1 1 0 0 0 -1 .74l-2.76 10.26h-4.24v2h5a1 1 0 0 0 1-.74z"/><path d="m12 39h4a1 1 0 0 0 1-1v-4a1 1 0 0 0 -1-1h-4a1 1 0 0 0 -1 1v4a1 1 0 0 0 1 1zm1-4h2v2h-2z"/><path d="m24 33h-4a1 1 0 0 0 -1 1v4a1 1 0 0 0 1 1h4a1 1 0 0 0 1-1v-4a1 1 0 0 0 -1-1zm-1 4h-2v-2h2z"/><path d="m32 33h-4a1 1 0 0 0 -1 1v4a1 1 0 0 0 1 1h4a1 1 0 0 0 1-1v-4a1 1 0 0 0 -1-1zm-1 4h-2v-2h2z"/><path d="m40 33h-4a1 1 0 0 0 -1 1v4a1 1 0 0 0 1 1h4a1 1 0 0 0 1-1v-4a1 1 0 0 0 -1-1zm-1 4h-2v-2h2z"/></g></svg>